<svg fill="none" height="29" viewBox="0 0 26 29" width="26" xmlns="http://www.w3.org/2000/svg"><path clip-rule="evenodd" d="m25.5337 25.3585-.0107-17.12844-7.8715-7.871558h-9.62082c-.36707.000002-.67829-.00527-.94586-.009802-1.18806-.020128-1.51559-.025676-2.05108.509813-.54356.543557-.5307 1.216037-.5103 2.282847.00422.22086.00877.45861.00877.71561v15.74313h1.74924v-15.74313c0-.46392 0-1.25689.24158-1.49847.25955-.25955.90058-.25487 1.36416-.25148.05014.00037.09821.00072.14349.00072h9.62082v4.25078c0 .10708-.0024.20508-.0046.29604-.0119.50015-.0188.78761.3975 1.20396.4921.49207.8041.5 1.5.5h4.2294v16.86038c0 .4639 0 .7599-.2401 1-.328.328-.536.3781-1 .3781h-2.2584v1.7493l2.2584.0122h.0665c.905.0004 1.7931.0008 2.4335-.6396.5475-.5475.5295-1.1788.5085-1.9119-.0042-.1455-.0085-.2949-.0085-.4485zm-18.66728 2.0107c-.1208-.2479-.18837-.5184-.19839-.794h1.33808c.0243.1366.07643.2667.15316.3822.07673.1156.17643.2141.29287.2895.13261.0903.27915.1583.43378.2011.16967.0472.35508.07.55972.07.28686 0 .52824-.0402.72236-.1225.1784-.0666.3334-.184.4461-.3375.1001-.15.152-.327.1486-.5073.0052-.1095-.0163-.2185-.0626-.3179-.0463-.0993-.1161-.1859-.2032-.2523-.1784-.1399-.4478-.2519-.80988-.3376l-1.08096-.2519c-.36207-.0804-.67691-.2063-.94278-.3725-.26586-.1697-.47226-.3813-.61569-.6419-.14343-.2589-.21339-.565-.21339-.9166 0-.4268.11019-.7993.33233-1.1177.22214-.3166.52824-.5632.92179-.7364.39355-.1749.84483-.2623 1.35732-.2623.46884-.0134.93476.0774 1.36436.2658.3511.1553.6535.4032.8745.7172.2068.2908.328.6338.3498.99h-1.3118c-.0299-.166-.1022-.3214-.2099-.4513-.115-.1395-.2628-.2483-.4303-.3166-.18188-.0787-.39703-.1189-.64715-.1189-.37781 0-.67691.0892-.89555.2658-.21515.175-.32359.3988-.32359.6717-.00164.1008.02028.2005.06401.2913s.10806.1702.18786.2317c.20881.1555.4506.2608.70665.3078l1.08617.2519c.3465.0724.6802.1962.99.3673.2697.1471.4959.3624.656.6245.1556.2623.2343.5877.2343.9795 0 .4338-.1084.8168-.327 1.1474-.2152.3288-.53.586-.9428.7696-.4111.1837-.91131.2764-1.50252.2764-.44428 0-.83083-.0525-1.16317-.1592-.33058-.1049-.60869-.2519-.83608-.4408-.21087-.1777-.38221-.3976-.50301-.6455zm-4.76186-3.9092c-.11894.3026-.17841.6734-.17841 1.1072v.0018.8658c-.01001.3735.05052.7456.17841 1.0967.10116.2761.28347.5151.52299.6856.24933.1589.54057.2393.83608.2309.24257.0057.48299-.0465.7014-.1522.19489-.1005.3592-.2515.47576-.4372.11909-.1919.18991-.4098.2064-.635h1.33633v.133c-.01685.4226-.15399.8315-.3953 1.1789-.23788.3393-.55972.6017-.96202.7941-.40405.1906-.86057.2868-1.37306.2868-.62969 0-1.16142-.1259-1.5987-.3795-.43728-.2554-.77137-.621-1.000501-1.095-.225637-.4757-.337582-1.0442-.337582-1.7071v-.8711c0-.6629.115443-1.2331.342829-1.7124.230884-.4775.563214-.8466 1.000504-1.1054.43903-.2606.97076-.3901 1.59345-.3901.36033-.0032.71865.0541 1.05997.1697.31345.1012.60404.2628.85532.4757.24529.2093.44441.4672.58472.7575.14032.2902.21877.6065.23037.9287v.1259h-1.33808c-.01603-.2356-.08798-.4641-.20989-.6664-.11411-.1922-.27864-.3494-.47576-.4548-.20115-.1136-.43379-.1696-.69616-.1696-.29509-.0082-.58542.0755-.83083.2396-.24077.1757-.42449.4185-.52824.6979zm14.23264 5.0218h-1.6669l-2.3403-6.9948h1.6039l1.5672 5.4888h.0665l1.5532-5.4888h1.5375l-2.3211 6.9965z" fill="#2a2238" fill-rule="evenodd"/></svg>