<?xml version="1.0" standalone="no"?>
<!DOCTYPE svg PUBLIC "-//W3C//DTD SVG 20010904//EN"
 "http://www.w3.org/TR/2001/REC-SVG-20010904/DTD/svg10.dtd">
<svg version="1.0" xmlns="http://www.w3.org/2000/svg"
 width="2000.000000pt" height="2000.000000pt" viewBox="0 0 2000.000000 2000.000000"
 preserveAspectRatio="xMidYMid meet">

<g transform="translate(0.000000,2000.000000) scale(0.100000,-0.100000)"
fill="#000000" stroke="none">
<path d="M9866 16516 c-22 -13 -51 -34 -65 -47 -15 -13 -39 -32 -54 -42 -16
-10 -43 -33 -60 -51 -18 -18 -48 -43 -67 -57 -19 -13 -51 -39 -70 -59 -19 -20
-51 -47 -70 -60 -19 -13 -46 -36 -60 -50 -14 -14 -43 -38 -64 -55 -22 -16 -56
-46 -76 -66 -19 -20 -58 -54 -85 -74 -28 -21 -57 -46 -65 -54 -8 -9 -35 -32
-60 -51 -25 -19 -52 -41 -60 -50 -8 -8 -40 -35 -70 -60 -30 -25 -66 -56 -80
-70 -14 -14 -41 -37 -60 -50 -19 -14 -59 -48 -88 -77 -29 -29 -56 -53 -61 -53
-4 0 -33 -24 -63 -53 -30 -29 -70 -64 -89 -77 -19 -13 -50 -40 -69 -60 -19
-19 -51 -47 -71 -62 -20 -15 -55 -45 -79 -68 -24 -23 -59 -53 -79 -68 -20 -15
-50 -41 -68 -58 -17 -18 -49 -45 -70 -60 -21 -16 -51 -43 -68 -60 -16 -18 -52
-49 -79 -69 -27 -21 -60 -48 -72 -61 -13 -12 -40 -35 -61 -51 -21 -15 -53 -43
-71 -60 -18 -18 -36 -33 -41 -33 -4 0 -28 -19 -52 -42 -25 -24 -62 -56 -82
-71 -21 -16 -47 -38 -60 -50 -12 -13 -38 -33 -57 -47 -19 -13 -46 -36 -60 -50
-14 -14 -41 -37 -60 -50 -19 -13 -51 -40 -70 -60 -19 -20 -51 -47 -70 -60 -19
-13 -46 -36 -60 -50 -14 -14 -42 -38 -63 -53 -20 -16 -48 -38 -60 -50 -12 -12
-38 -34 -57 -48 -19 -14 -51 -41 -70 -59 -19 -18 -51 -44 -70 -59 -19 -14 -46
-37 -60 -51 -14 -14 -41 -37 -60 -50 -19 -13 -46 -36 -60 -50 -14 -14 -41 -37
-60 -50 -19 -13 -46 -36 -60 -50 -14 -14 -50 -45 -80 -70 -30 -25 -66 -56 -80
-70 -14 -14 -41 -37 -60 -50 -19 -13 -51 -40 -70 -60 -19 -19 -52 -48 -73 -63
-20 -16 -48 -38 -60 -50 -12 -12 -39 -35 -60 -51 -21 -15 -53 -42 -70 -60 -18
-17 -49 -44 -70 -59 -21 -16 -48 -38 -60 -50 -12 -12 -39 -35 -60 -50 -56 -42
-170 -158 -184 -187 -6 -14 -15 -38 -19 -55 -10 -37 -11 -4019 -1 -4889 6
-569 8 -631 23 -647 10 -11 23 -19 31 -19 7 0 13 -3 13 -8 0 -4 15 -13 33 -20
17 -7 40 -18 51 -23 21 -12 1831 -13 1850 -2 6 4 67 11 136 15 153 10 284 23
370 38 36 6 85 13 110 16 25 3 54 9 65 14 11 5 38 11 60 14 79 10 115 18 121
27 3 5 16 9 30 9 13 0 33 5 44 10 11 6 29 15 40 20 11 5 29 10 39 10 11 0 23
4 26 10 3 6 15 10 26 10 10 0 27 4 37 9 17 9 51 23 95 40 37 14 81 33 99 42
10 5 25 9 33 9 8 0 15 5 15 10 0 6 9 10 20 10 11 0 20 5 20 10 0 6 9 10 19 10
11 0 21 3 23 8 4 10 128 72 144 72 8 0 14 5 14 10 0 6 7 10 15 10 9 0 25 9 37
20 12 11 28 20 35 20 7 0 13 5 13 10 0 6 9 10 20 10 11 0 20 5 20 10 0 6 9 10
20 10 11 0 20 4 20 9 0 5 9 12 19 16 11 3 36 21 57 40 21 19 42 35 47 35 14 0
270 258 298 301 40 57 84 114 92 117 4 2 7 12 7 23 0 10 4 19 8 19 7 0 17 16
59 95 40 75 73 151 73 166 0 11 5 19 10 19 6 0 10 11 10 24 0 14 5 28 10 31 6
3 10 15 10 26 0 10 5 28 10 39 6 11 15 29 20 40 6 11 10 29 10 39 0 11 5 23
10 26 6 3 10 17 10 30 0 13 5 27 10 30 6 3 10 30 10 60 0 30 5 57 10 60 6 3
10 30 10 60 0 30 5 57 10 60 13 8 14 447 1 461 -5 5 -12 32 -15 59 -10 94 -18
135 -27 141 -5 3 -9 23 -9 44 0 21 -4 42 -10 45 -5 3 -10 15 -10 26 0 10 -4
27 -9 37 -5 9 -13 28 -18 42 -23 57 -31 76 -44 105 -8 17 -16 32 -19 35 -12
12 -30 51 -30 65 0 8 -4 15 -9 15 -5 0 -11 8 -14 18 -6 17 -37 72 -47 82 -5 5
-12 18 -44 75 -6 10 -17 25 -23 33 -7 7 -13 17 -13 22 0 5 -11 20 -25 34 -14
14 -25 29 -25 34 0 4 -8 17 -18 28 -10 10 -38 48 -62 84 -24 36 -54 75 -67 88
-13 13 -23 26 -23 31 0 4 -19 28 -42 52 -24 25 -56 61 -71 82 -15 20 -54 63
-86 96 -32 33 -76 81 -97 108 -22 26 -49 58 -61 70 -12 12 -30 36 -39 53 -10
16 -22 30 -26 30 -4 0 -8 4 -8 10 0 9 -43 70 -85 122 -7 9 -19 27 -26 40 -6
13 -15 25 -18 28 -3 3 -17 25 -30 50 -14 25 -27 47 -30 50 -12 10 -51 92 -51
106 0 8 -3 14 -8 14 -4 0 -13 15 -20 33 -7 17 -18 40 -23 49 -5 10 -9 27 -9
37 0 11 -4 23 -10 26 -5 3 -10 19 -10 35 0 16 -4 31 -9 34 -22 14 -61 400 -42
419 6 6 11 37 11 68 0 32 5 61 10 64 6 3 10 19 10 34 0 35 21 79 40 85 31 10
75 43 125 92 45 43 63 70 106 156 5 10 9 26 9 36 0 10 5 23 11 29 15 15 15
413 0 441 -6 12 -11 41 -11 67 0 30 -6 52 -18 65 -18 19 -19 19 -55 -6 -89
-60 -247 -221 -247 -251 0 -7 -4 -13 -9 -13 -9 0 -82 -146 -101 -205 -17 -50
-17 -262 -1 -278 6 -6 11 -21 11 -33 0 -13 5 -26 10 -29 6 -3 10 -19 10 -35 0
-16 5 -32 11 -36 11 -6 9 -25 -13 -134 -19 -97 -10 -401 13 -425 5 -5 9 -21 9
-36 0 -15 5 -31 10 -34 6 -3 10 -17 10 -31 0 -13 4 -32 9 -42 5 -9 17 -35 26
-57 10 -22 23 -53 31 -69 14 -29 18 -56 9 -56 -26 0 -111 78 -141 130 -10 16
-22 30 -26 30 -4 0 -8 6 -8 14 0 8 -22 37 -50 65 -27 28 -50 54 -50 59 0 4
-13 21 -28 37 -15 17 -39 46 -52 65 -13 19 -32 42 -42 51 -10 9 -18 20 -18 25
0 5 -13 24 -29 43 -32 38 -91 146 -91 167 0 8 -4 14 -10 14 -5 0 -10 7 -10 15
0 8 -4 23 -9 33 -5 9 -14 31 -21 47 -7 17 -16 38 -21 47 -5 10 -9 26 -9 36 0
10 -4 22 -9 27 -5 6 -11 30 -14 55 -3 25 -9 71 -13 103 -3 31 -10 60 -15 63
-5 3 -9 20 -9 39 0 19 -4 37 -10 40 -5 3 -10 40 -10 81 0 43 4 74 10 74 6 0
10 11 10 25 0 30 15 58 53 98 15 17 27 38 27 48 0 10 5 21 10 24 6 3 10 19 10
35 0 16 5 32 10 35 6 3 10 24 10 45 0 21 5 42 10 45 6 3 10 39 10 80 0 41 -4
77 -10 80 -5 3 -10 26 -10 50 0 24 -4 47 -10 50 -5 3 -10 17 -10 31 0 13 -4
33 -10 44 -5 11 -14 29 -20 40 -5 11 -10 27 -10 35 0 8 -3 15 -8 15 -4 0 -15
18 -25 41 -20 47 -246 279 -271 279 -12 0 -16 -10 -16 -34 0 -19 -4 -38 -10
-41 -5 -3 -10 -21 -10 -40 0 -19 -4 -37 -10 -40 -5 -3 -10 -23 -10 -44 0 -20
-4 -41 -9 -46 -5 -6 -11 -30 -14 -55 -3 -25 -11 -70 -17 -100 -29 -142 -34
-410 -9 -426 5 -3 9 -14 9 -24 0 -54 109 -210 147 -210 7 0 13 -4 13 -8 0 -5
10 -14 23 -21 22 -12 23 -17 24 -154 1 -155 10 -257 24 -272 5 -5 9 -19 9 -31
0 -13 5 -26 10 -29 6 -3 10 -15 10 -25 0 -10 3 -20 8 -22 4 -1 17 -23 30 -47
20 -39 21 -46 9 -59 -13 -12 -20 -12 -51 -1 -20 7 -36 16 -36 20 0 4 -8 10
-19 14 -33 10 -61 42 -61 68 0 14 -4 29 -10 32 -5 3 -10 15 -10 26 0 10 -4 27
-9 37 -5 9 -21 43 -36 75 -28 60 -119 161 -167 186 -16 8 -28 18 -28 23 0 4
-9 8 -19 8 -11 0 -21 3 -23 8 -3 7 -77 44 -128 64 -14 6 -33 14 -42 19 -10 5
-27 9 -37 9 -11 0 -23 5 -26 10 -3 6 -21 10 -39 10 -17 0 -36 4 -42 9 -5 5
-29 12 -54 15 -99 12 -130 18 -136 27 -3 5 -20 9 -39 9 -19 0 -37 5 -40 10 -3
6 -17 10 -31 10 -22 0 -24 -4 -24 -49 0 -28 5 -53 10 -56 6 -3 10 -15 10 -26
0 -10 5 -28 10 -39 6 -11 15 -29 20 -40 6 -11 10 -27 10 -35 0 -8 5 -15 10
-15 6 0 10 -8 10 -17 0 -10 9 -29 20 -43 11 -14 20 -29 20 -33 1 -32 140 -186
212 -234 40 -27 155 -85 203 -103 11 -4 31 -12 45 -17 83 -33 182 -45 195 -23
14 22 117 8 145 -20 3 -3 17 -11 33 -19 15 -8 27 -18 27 -23 0 -4 7 -8 16 -8
15 0 303 -281 336 -328 8 -13 63 -72 122 -133 58 -60 106 -113 106 -117 0 -5
44 -53 98 -108 53 -54 118 -124 142 -154 25 -30 47 -57 50 -60 17 -16 68 -91
89 -129 13 -24 36 -55 52 -68 16 -14 29 -32 29 -42 0 -9 9 -23 20 -31 11 -8
20 -18 20 -22 0 -11 -46 -10 -68 1 -9 5 -30 14 -47 21 -16 7 -38 16 -47 21
-10 5 -27 9 -37 9 -11 0 -23 5 -26 10 -3 6 -19 10 -35 10 -16 0 -32 5 -35 10
-3 6 -19 10 -35 10 -16 0 -31 4 -34 9 -3 5 -20 11 -38 14 -18 3 -55 11 -83 17
-27 6 -67 14 -88 17 -20 3 -40 9 -43 14 -3 5 -20 9 -39 9 -19 0 -37 5 -40 10
-3 6 -21 10 -40 10 -19 0 -37 5 -40 10 -3 6 -19 10 -35 10 -16 0 -32 5 -35 10
-3 6 -19 10 -35 10 -16 0 -32 5 -35 10 -3 6 -16 10 -27 10 -23 0 -81 17 -110
31 -10 5 -25 9 -33 9 -8 0 -15 5 -15 10 0 6 -9 10 -20 10 -11 0 -35 9 -55 20
-20 11 -42 20 -50 20 -8 0 -15 5 -15 10 0 6 -9 10 -20 10 -11 0 -20 3 -20 8 0
4 -30 23 -67 42 -38 19 -69 38 -71 43 -2 4 -12 7 -23 7 -10 0 -19 4 -19 8 0 4
-12 15 -27 24 -16 9 -39 26 -53 38 -14 12 -41 34 -60 49 -53 40 -54 41 -99
134 -24 48 -47 87 -52 87 -5 0 -9 7 -9 14 0 15 -96 116 -111 116 -4 0 -14 6
-21 13 -7 6 -24 17 -38 24 -81 37 -121 53 -133 53 -7 0 -17 4 -23 9 -42 41
-694 22 -694 -20 0 -5 3 -9 8 -9 4 0 14 -11 22 -24 16 -27 110 -136 151 -176
56 -55 130 -120 137 -120 4 0 23 -14 42 -30 19 -16 41 -30 48 -30 6 0 12 -4
12 -10 0 -5 9 -10 19 -10 11 0 21 -3 23 -7 2 -5 26 -19 53 -32 28 -13 58 -27
67 -32 10 -5 27 -9 38 -9 11 0 20 -4 20 -9 0 -8 26 -16 100 -28 19 -3 40 -10
47 -15 14 -11 192 9 207 23 13 12 66 12 66 0 0 -5 8 -11 18 -14 22 -7 71 -37
96 -59 11 -10 26 -18 33 -18 7 0 13 -4 13 -8 0 -5 12 -15 28 -23 15 -8 36 -22
46 -31 11 -10 25 -18 32 -18 6 0 17 -6 23 -14 9 -11 7 -20 -14 -40 -22 -23
-34 -26 -90 -26 -35 0 -67 -4 -70 -10 -3 -5 -46 -10 -95 -10 -49 0 -92 5 -95
10 -4 6 -68 10 -160 10 -92 0 -156 -4 -160 -10 -3 -5 -15 -10 -26 -10 -10 0
-27 -4 -37 -9 -9 -5 -30 -15 -47 -22 -16 -8 -39 -22 -49 -31 -11 -10 -25 -18
-31 -18 -6 0 -17 -9 -25 -20 -8 -11 -19 -20 -25 -20 -14 0 -116 -98 -145 -140
-13 -19 -31 -42 -40 -50 -9 -8 -27 -31 -40 -50 -36 -52 -112 -130 -137 -140
-29 -12 -29 -33 0 -49 17 -9 75 -11 217 -7 206 5 289 12 304 27 6 5 20 9 33 9
13 0 31 4 41 9 9 5 31 14 47 21 17 7 41 19 55 27 14 8 33 17 43 20 9 3 17 9
17 14 0 5 6 9 14 9 28 0 140 124 181 201 5 11 13 19 17 19 5 0 8 9 8 20 0 11
5 20 10 20 6 0 10 11 10 23 0 37 29 54 105 62 95 9 143 8 255 -4 167 -18 195
-23 204 -32 6 -5 29 -9 52 -9 24 0 46 -4 49 -10 3 -5 21 -10 40 -10 19 0 37
-4 40 -10 3 -5 26 -10 50 -10 24 0 47 -4 50 -10 3 -5 21 -10 40 -10 19 0 37
-4 40 -10 3 -5 25 -10 49 -10 23 0 46 -4 52 -9 5 -5 27 -11 49 -13 28 -2 41
-8 43 -20 2 -12 -3 -18 -15 -18 -10 0 -25 -9 -33 -20 -8 -11 -22 -20 -32 -20
-10 0 -18 -4 -18 -10 0 -5 -6 -10 -12 -10 -7 0 -29 -14 -48 -30 -19 -16 -39
-30 -44 -30 -5 0 -16 -9 -25 -19 -14 -16 -34 -20 -117 -24 -101 -5 -154 -12
-189 -26 -51 -21 -160 -77 -163 -83 -2 -5 -9 -8 -16 -8 -7 0 -27 -13 -44 -30
-18 -16 -35 -30 -40 -30 -10 0 -102 -93 -102 -103 0 -4 -9 -17 -20 -29 -11
-12 -20 -28 -20 -35 0 -7 -4 -13 -10 -13 -5 0 -10 -9 -10 -19 0 -11 -4 -23
-10 -26 -5 -3 -10 -17 -10 -30 0 -13 -4 -26 -9 -29 -8 -6 -14 -31 -27 -119 -4
-20 -10 -40 -15 -43 -5 -3 -9 -23 -9 -44 0 -21 -5 -51 -10 -66 -16 -40 0 -51
67 -47 69 4 164 23 178 35 5 4 19 8 31 8 13 0 26 5 29 10 3 6 15 10 26 10 10
0 27 4 37 9 9 5 32 16 50 23 17 7 32 16 32 19 0 4 14 12 30 19 17 7 30 16 30
21 0 4 9 11 20 14 45 14 154 141 189 220 7 17 17 38 22 47 5 10 9 27 9 37 0
11 5 23 10 26 6 3 10 36 10 73 l0 67 70 68 c38 37 73 67 79 67 5 0 16 6 23 13
14 12 40 28 78 47 11 6 29 15 40 20 11 6 27 10 35 10 8 0 15 5 15 10 0 6 11
10 24 10 14 0 28 5 31 10 3 6 19 10 35 10 16 0 41 5 57 11 31 11 229 -7 239
-22 3 -5 13 -9 24 -9 20 0 103 -40 108 -52 2 -5 12 -8 23 -8 10 0 19 -4 19
-10 0 -5 6 -10 13 -10 7 0 22 -8 33 -18 10 -10 35 -29 54 -42 49 -34 264 -251
286 -289 10 -17 22 -31 26 -31 4 0 8 -6 8 -14 0 -7 12 -26 28 -43 25 -28 34
-40 65 -95 6 -13 14 -25 17 -28 3 -3 14 -23 26 -45 27 -53 48 -89 54 -95 6 -6
69 -135 80 -165 4 -11 18 -42 30 -70 12 -27 27 -61 32 -75 6 -14 14 -33 19
-42 5 -10 9 -29 9 -42 0 -14 4 -27 9 -30 5 -3 11 -23 14 -43 4 -21 12 -69 19
-108 8 -43 12 -146 11 -265 -1 -199 -8 -287 -24 -304 -5 -6 -9 -27 -9 -47 0
-21 -4 -41 -10 -44 -5 -3 -10 -21 -10 -40 0 -19 -4 -37 -10 -40 -5 -3 -10 -15
-10 -26 0 -10 -4 -28 -10 -39 -5 -11 -14 -29 -20 -40 -5 -11 -10 -29 -10 -40
0 -11 -4 -20 -10 -20 -5 0 -10 -9 -10 -20 0 -11 -4 -28 -9 -38 -5 -9 -38 -75
-72 -147 -35 -71 -72 -139 -81 -149 -10 -11 -18 -26 -18 -33 0 -7 -4 -13 -8
-13 -4 0 -16 -14 -27 -32 -19 -33 -182 -198 -195 -198 -4 0 -25 -16 -46 -35
-21 -19 -44 -35 -51 -35 -7 0 -13 -4 -13 -8 0 -5 -12 -15 -27 -23 -16 -8 -30
-16 -33 -19 -15 -15 -113 -70 -126 -70 -8 0 -14 -4 -14 -10 0 -5 -9 -10 -20
-10 -11 0 -20 -4 -20 -10 0 -5 -9 -10 -20 -10 -11 0 -20 -4 -20 -10 0 -5 -9
-10 -20 -10 -11 0 -20 -4 -20 -10 0 -5 -9 -10 -20 -10 -11 0 -20 -3 -20 -8 0
-4 -15 -13 -32 -20 -18 -8 -44 -18 -58 -24 -29 -12 -66 -27 -97 -39 -44 -17
-78 -31 -95 -40 -10 -5 -27 -9 -38 -9 -11 0 -20 -4 -20 -10 0 -5 -11 -10 -24
-10 -14 0 -28 -4 -31 -10 -3 -5 -17 -10 -30 -10 -13 0 -27 -4 -30 -10 -3 -6
-19 -10 -35 -10 -16 0 -32 -5 -35 -10 -3 -6 -19 -10 -34 -10 -15 0 -31 -4 -36
-9 -6 -5 -30 -12 -55 -15 -25 -3 -76 -10 -115 -16 -38 -6 -101 -13 -140 -16
-38 -3 -79 -9 -90 -14 -11 -5 -58 -12 -105 -15 -47 -4 -125 -11 -175 -17 -135
-15 -1773 -22 -1791 -7 -20 16 -21 5267 -2 5301 18 30 46 59 88 88 19 13 46
36 60 50 14 14 41 37 60 50 19 14 54 44 78 67 23 24 46 43 50 43 5 0 29 19 53
43 25 23 60 54 79 67 19 13 51 40 70 61 19 20 51 47 70 60 19 13 59 47 88 76
29 29 56 53 61 53 4 0 32 24 62 53 30 29 70 64 89 77 19 13 46 36 60 50 14 14
41 37 60 50 19 13 51 40 70 60 19 19 52 48 74 64 21 16 57 47 80 70 23 22 63
59 90 80 27 22 58 49 70 60 11 12 37 33 56 46 19 14 50 39 68 57 18 18 36 33
40 33 5 0 37 27 71 60 35 33 67 60 72 60 5 0 28 19 51 43 24 23 59 53 78 67
19 14 58 48 87 77 28 29 55 53 60 53 4 0 28 19 53 43 25 23 63 55 84 71 21 16
57 47 80 70 22 23 57 52 76 66 19 13 51 40 70 60 19 20 51 47 70 60 19 14 50
39 68 57 18 18 36 33 41 33 4 0 29 20 54 45 26 25 51 45 55 45 4 0 31 23 60
50 29 28 56 50 61 50 5 0 26 17 47 38 22 20 55 48 74 62 19 13 46 36 60 50 14
14 42 38 64 54 21 16 57 47 80 70 22 22 61 57 86 76 25 19 61 51 80 70 19 20
51 47 70 60 19 14 50 39 68 57 18 18 36 33 40 33 4 0 24 15 43 33 19 17 52 45
73 61 20 15 52 42 69 60 18 17 48 42 67 56 19 13 55 45 80 70 25 25 62 58 84
74 21 16 62 52 90 80 90 89 180 156 210 156 7 0 47 -33 88 -72 96 -94 146
-138 188 -168 19 -14 45 -34 57 -47 13 -12 40 -34 60 -50 21 -15 49 -39 63
-53 14 -14 41 -37 60 -50 19 -14 49 -39 67 -56 17 -18 49 -45 70 -60 21 -16
49 -40 63 -54 14 -14 40 -37 59 -50 19 -13 57 -46 85 -72 28 -26 53 -48 57
-48 4 0 28 -20 52 -44 25 -24 63 -57 84 -72 21 -16 54 -45 73 -64 19 -20 51
-47 70 -60 19 -13 51 -40 70 -60 19 -20 51 -47 70 -60 19 -13 46 -36 60 -50
14 -14 41 -37 60 -50 19 -14 45 -34 57 -47 13 -12 40 -34 60 -50 21 -15 45
-35 53 -43 8 -8 32 -28 54 -44 21 -16 57 -47 80 -70 22 -23 57 -52 76 -66 19
-13 46 -36 60 -50 14 -14 46 -41 73 -59 26 -17 47 -35 47 -39 0 -4 15 -16 33
-27 17 -10 50 -37 72 -59 22 -23 69 -66 104 -96 36 -30 85 -75 110 -99 25 -24
62 -55 81 -70 19 -14 53 -45 76 -67 23 -23 59 -54 80 -70 22 -16 55 -45 74
-64 19 -20 51 -47 70 -60 19 -13 54 -44 79 -67 24 -24 49 -43 54 -43 5 0 23
-15 40 -33 18 -17 48 -43 67 -57 19 -13 46 -36 60 -50 14 -14 41 -37 60 -50
19 -13 51 -40 70 -60 19 -19 55 -51 80 -70 24 -19 67 -56 94 -82 28 -27 54
-48 59 -48 4 0 23 -15 42 -34 18 -19 51 -47 72 -62 21 -16 48 -39 60 -51 12
-12 39 -34 60 -50 21 -15 52 -42 70 -59 17 -18 49 -45 70 -60 21 -16 48 -39
60 -51 12 -12 39 -34 60 -50 21 -15 51 -40 67 -55 16 -16 33 -28 38 -28 15 0
93 -83 106 -113 19 -44 17 -5320 -2 -5336 -10 -9 -254 -10 -957 -7 -899 4
-1021 8 -1189 36 -36 6 -85 13 -110 16 -25 3 -54 9 -65 14 -11 5 -36 11 -55
14 -71 10 -105 18 -125 26 -20 9 -56 16 -128 27 -20 3 -40 9 -43 14 -3 5 -18
9 -34 9 -16 0 -32 5 -35 10 -3 6 -19 10 -35 10 -16 0 -32 4 -35 10 -3 6 -21
10 -40 10 -19 0 -37 4 -40 10 -3 6 -15 10 -26 10 -10 0 -27 4 -37 9 -9 5 -37
15 -62 22 -25 7 -49 16 -55 21 -5 4 -19 8 -31 8 -13 0 -26 4 -29 10 -3 6 -14
10 -24 10 -9 0 -36 9 -59 20 -22 11 -45 20 -51 20 -5 0 -26 9 -48 19 -21 11
-55 27 -76 36 -43 18 -117 89 -117 111 0 8 -4 14 -10 14 -5 0 -10 9 -10 20 0
11 -4 20 -10 20 -5 0 -10 9 -10 20 0 11 -4 20 -10 20 -5 0 -10 9 -10 19 0 11
-3 21 -7 23 -11 4 -53 87 -53 104 0 8 -5 23 -12 34 -10 15 -9 24 2 44 10 20
11 31 2 49 -25 51 -30 176 -13 337 6 52 15 142 21 200 6 58 15 148 21 200 13
118 31 488 31 635 1 116 -20 311 -48 443 -8 42 14 384 27 397 5 5 9 21 9 36 0
15 5 31 10 34 6 3 10 19 10 35 0 16 5 32 10 35 6 3 10 15 10 26 0 11 14 40 30
64 17 24 30 46 30 50 0 15 71 75 89 75 11 0 22 4 25 9 6 9 53 18 146 27 30 3
59 10 64 15 14 13 353 12 361 -1 3 -5 24 -10 45 -10 21 0 42 -4 45 -10 3 -5
28 -10 55 -10 27 0 52 -4 55 -10 3 -5 17 -10 31 -10 13 0 32 -4 42 -9 9 -5 31
-15 47 -22 17 -7 49 -33 73 -57 33 -33 42 -51 42 -77 0 -19 5 -37 10 -40 6 -3
10 -15 10 -26 0 -10 4 -27 9 -37 59 -117 74 -144 89 -160 6 -7 12 -17 12 -22
0 -13 178 -190 190 -190 6 0 20 -9 32 -20 12 -11 28 -20 35 -20 7 0 13 -4 13
-10 0 -5 9 -10 20 -10 11 0 20 -4 20 -10 0 -5 9 -10 19 -10 11 0 23 -4 26 -10
3 -5 15 -10 25 -10 11 0 35 -9 55 -20 20 -11 46 -20 58 -20 13 0 27 -4 32 -9
6 -5 35 -12 65 -15 169 -19 160 -19 160 1 0 11 -18 54 -40 97 -22 42 -40 82
-40 87 0 5 -9 29 -20 51 -11 23 -20 48 -20 55 0 7 -3 13 -7 13 -8 0 -33 48
-33 62 0 5 -9 18 -20 30 -11 12 -20 28 -20 35 0 7 -4 13 -8 13 -4 0 -16 14
-27 32 -19 33 -182 198 -195 198 -4 0 -20 11 -36 25 -16 14 -35 25 -41 25 -7
0 -13 4 -13 8 0 8 -62 41 -115 63 -39 15 -81 22 -165 26 -69 3 -97 10 -150 35
-36 17 -76 35 -90 40 -14 6 -33 14 -42 19 -10 5 -27 9 -37 9 -11 0 -23 5 -26
10 -3 6 -24 10 -45 10 -21 0 -42 5 -45 10 -3 6 -25 10 -48 10 -23 0 -60 5 -82
10 -56 14 -355 14 -368 1 -11 -11 -47 -15 -47 -5 0 13 30 34 48 34 20 0 52 29
52 48 0 7 7 12 15 12 9 0 25 9 37 20 12 11 28 20 35 20 7 0 28 9 48 20 20 11
41 20 48 20 7 0 39 14 72 30 33 17 69 30 82 30 12 0 25 5 28 10 3 6 19 10 35
10 16 0 31 4 34 9 3 5 25 12 48 15 82 13 503 32 526 24 13 -4 83 -8 157 -8 78
0 136 -4 140 -10 3 -5 26 -10 50 -10 24 0 47 -4 50 -10 3 -5 21 -10 40 -10 19
0 36 -4 39 -9 6 -9 42 -17 121 -27 61 -8 135 -50 135 -77 0 -5 14 -29 30 -54
17 -24 30 -48 30 -52 0 -12 122 -134 151 -150 53 -32 99 -51 123 -51 14 0 28
-4 31 -10 3 -5 28 -10 55 -10 27 0 52 -4 55 -10 3 -5 30 -10 60 -10 30 0 57
-4 60 -10 3 -5 24 -10 45 -10 21 0 42 -4 45 -10 3 -5 24 -10 46 -10 22 0 49
-4 59 -10 17 -9 73 2 93 20 4 4 -8 24 -28 45 -19 22 -35 44 -35 51 0 7 -4 14
-8 16 -12 4 -72 95 -72 107 0 6 -4 11 -9 11 -5 0 -13 10 -16 21 -9 28 -161
179 -179 179 -8 0 -16 3 -18 8 -5 10 -87 48 -133 60 -70 19 -107 24 -250 32
-159 10 -226 18 -239 31 -6 5 -25 9 -42 9 -18 0 -35 4 -38 9 -3 5 -23 11 -43
14 -53 7 -94 17 -118 27 -11 5 -33 11 -50 15 -16 3 -50 11 -75 16 -157 35
-257 41 -432 26 l-98 -9 0 39 c0 42 31 83 63 83 9 0 17 4 17 8 0 5 12 15 28
23 15 8 29 17 32 20 12 14 100 69 109 69 6 0 11 4 11 8 0 5 12 15 28 23 15 8
29 16 32 19 5 6 211 107 245 120 65 26 93 20 149 -32 11 -10 26 -18 33 -18 7
0 13 -4 13 -10 0 -5 9 -10 20 -10 11 0 20 -3 20 -8 0 -6 16 -14 85 -42 47 -18
128 -32 159 -26 19 4 67 9 107 12 71 5 124 16 161 35 10 5 27 9 37 9 11 0 23
5 26 10 3 6 14 10 25 10 10 0 44 14 76 31 33 18 69 37 81 43 13 6 23 14 23 19
0 4 6 7 13 7 18 0 148 127 172 168 11 18 23 32 27 32 4 0 8 8 8 18 0 14 -14
21 -62 31 -75 16 -127 30 -150 42 -10 5 -27 9 -37 9 -11 0 -22 4 -25 9 -15 23
-274 32 -391 14 -64 -10 -154 -39 -169 -54 -6 -5 -18 -9 -28 -9 -10 0 -18 -4
-18 -10 0 -5 -9 -10 -19 -10 -11 0 -21 -3 -23 -7 -4 -10 -57 -42 -80 -50 -10
-3 -18 -9 -18 -14 0 -5 -9 -9 -19 -9 -11 0 -21 -3 -23 -7 -4 -10 -57 -42 -80
-50 -10 -3 -18 -9 -18 -14 0 -5 -7 -9 -15 -9 -8 0 -23 -4 -33 -9 -47 -24 -131
-51 -160 -51 -11 0 -24 -4 -27 -10 -3 -5 -15 -10 -26 -10 -10 0 -27 -4 -37 -9
-9 -5 -30 -15 -47 -22 -16 -8 -41 -24 -55 -36 -14 -13 -28 -23 -32 -23 -4 0
-18 -11 -32 -25 -14 -14 -29 -25 -34 -25 -4 0 -17 -8 -28 -17 -19 -17 -31 -24
-86 -55 -13 -7 -25 -15 -28 -18 -3 -3 -15 -11 -27 -17 -13 -7 -33 -19 -45 -25
-13 -7 -25 -15 -28 -18 -4 -5 -233 -118 -350 -174 -25 -11 -46 -24 -48 -28 -2
-5 -12 -8 -23 -8 -10 0 -19 -3 -19 -8 0 -4 -13 -13 -30 -20 -16 -6 -43 -18
-60 -24 -16 -7 -30 -16 -30 -20 0 -5 -9 -8 -20 -8 -11 0 -20 -3 -20 -7 0 -8
-48 -33 -62 -33 -5 0 -18 -9 -30 -20 -12 -11 -28 -20 -35 -20 -7 0 -13 -4 -13
-10 0 -5 -6 -10 -12 -10 -7 0 -42 -22 -78 -50 -36 -27 -69 -49 -73 -50 -11 0
-80 -72 -115 -119 -15 -20 -35 -45 -44 -55 -10 -11 -18 -25 -18 -32 0 -6 -7
-17 -15 -24 -19 -16 -45 -68 -45 -91 0 -10 -4 -21 -10 -24 -5 -3 -10 -19 -10
-35 0 -16 -4 -32 -10 -35 -5 -3 -10 -19 -10 -35 0 -40 -42 -130 -60 -130 -15
0 -40 61 -40 99 0 11 -4 23 -10 26 -5 3 -10 19 -10 34 0 15 -5 32 -11 38 -6 6
-8 59 -6 149 5 150 14 221 28 230 5 3 9 16 9 29 0 13 5 27 10 30 6 3 10 15 10
26 0 10 5 19 10 19 6 0 10 7 10 16 0 14 33 70 50 84 3 3 17 21 30 40 14 19 45
55 70 80 25 25 63 68 85 95 54 67 381 394 425 425 19 13 47 37 62 52 14 15 30
28 35 28 4 0 25 16 47 35 21 19 42 35 46 35 5 0 15 6 22 13 8 6 23 17 33 23
57 32 70 39 75 44 12 12 51 30 65 30 8 0 15 5 15 10 0 6 6 10 14 10 8 0 31 8
53 19 21 10 58 28 83 39 154 69 230 107 230 114 0 4 9 8 19 8 11 0 21 3 23 8
4 9 57 41 81 49 9 3 17 9 17 14 0 5 6 9 13 9 6 0 26 12 42 26 17 14 42 33 58
42 15 9 27 20 27 24 0 4 6 8 13 8 7 0 23 9 35 20 12 11 28 20 36 20 9 0 31 -9
51 -20 28 -16 54 -20 125 -20 49 0 92 5 95 10 3 6 15 10 26 10 10 0 27 4 37 9
9 5 49 24 87 42 39 19 72 37 73 41 2 5 9 8 15 8 16 1 75 56 110 103 16 20 38
47 51 60 29 29 79 104 97 145 8 17 17 32 21 32 5 0 8 11 8 24 0 14 5 28 10 31
6 3 10 14 10 24 0 16 -15 18 -194 20 -127 1 -197 -2 -201 -9 -3 -5 -21 -10
-40 -10 -19 0 -37 -4 -40 -10 -3 -5 -15 -10 -25 -10 -20 0 -93 -39 -98 -52 -2
-4 -9 -8 -17 -8 -31 0 -135 -127 -184 -224 -26 -51 -81 -113 -141 -158 -19
-14 -46 -35 -59 -47 -13 -11 -32 -23 -42 -26 -11 -4 -19 -11 -19 -16 0 -5 -6
-9 -13 -9 -7 0 -22 -8 -33 -18 -18 -16 -189 -104 -261 -134 -18 -7 -33 -16
-33 -20 0 -5 -11 -8 -24 -8 -14 0 -28 -4 -31 -10 -3 -5 -17 -10 -30 -10 -13 0
-27 -4 -30 -10 -7 -11 -49 -14 -43 -2 2 4 12 26 23 50 11 23 23 42 27 42 5 0
8 9 8 20 0 11 5 20 10 20 6 0 10 6 10 14 0 8 17 43 38 77 21 35 44 78 52 94 8
17 17 32 20 35 8 8 39 62 67 120 15 30 31 56 35 58 4 2 8 12 8 23 0 10 5 19
10 19 6 0 10 8 10 18 0 9 17 31 37 47 73 60 123 108 123 117 0 5 9 18 20 30
11 12 20 28 20 35 0 7 5 13 10 13 6 0 10 9 10 20 0 11 5 20 10 20 6 0 10 9 10
19 0 11 5 23 10 26 6 3 10 17 10 31 0 13 5 24 10 24 6 0 10 19 10 43 0 24 5
48 10 53 14 14 15 226 1 252 -6 11 -11 34 -11 51 0 16 -4 33 -10 36 -5 3 -10
17 -10 30 0 13 -4 27 -10 30 -5 3 -10 15 -10 26 0 10 -3 19 -7 19 -5 0 -13 10
-19 23 -28 57 -60 113 -71 125 -10 10 -16 10 -34 0 -30 -18 -150 -140 -171
-175 -29 -47 -42 -66 -60 -87 -10 -11 -18 -26 -18 -33 0 -7 -4 -13 -10 -13 -5
0 -10 -9 -10 -19 0 -11 -4 -23 -10 -26 -5 -3 -10 -17 -10 -30 0 -13 -4 -26 -9
-29 -15 -10 -24 -77 -24 -191 0 -116 9 -185 24 -185 5 0 9 -9 9 -20 0 -11 5
-29 10 -40 6 -11 15 -29 20 -40 6 -11 10 -29 10 -40 0 -11 5 -20 10 -20 6 0
10 -9 10 -20 0 -11 5 -20 10 -20 20 0 9 -67 -20 -125 -16 -33 -30 -65 -30 -72
0 -15 -43 -97 -52 -101 -5 -2 -8 -12 -8 -23 0 -10 -3 -19 -8 -19 -4 0 -18 -21
-32 -47 -24 -48 -98 -164 -110 -173 -3 -3 -17 -21 -30 -40 -28 -40 -256 -270
-268 -270 -5 0 -22 -11 -38 -25 -16 -14 -35 -25 -41 -25 -7 0 -13 -4 -13 -8 0
-4 -14 -16 -30 -26 -17 -9 -41 -28 -55 -42 -13 -13 -27 -24 -31 -24 -4 0 -18
-10 -31 -22 -23 -21 -24 -21 -41 -4 -12 14 -14 20 -4 23 7 3 12 22 12 43 0 21
5 42 10 45 6 3 10 17 10 30 0 13 4 26 9 29 5 3 11 18 14 33 3 16 11 48 17 73
14 58 30 134 37 185 3 22 9 44 14 50 5 5 9 17 9 27 0 10 23 52 50 92 28 40 50
76 50 80 0 4 9 16 20 28 11 12 20 30 20 39 0 10 5 21 10 24 6 3 10 23 10 44 0
20 5 42 11 48 17 17 -2 296 -22 318 -5 5 -9 19 -9 32 0 13 -4 31 -9 41 -5 9
-19 40 -32 67 -13 28 -32 57 -41 66 -10 9 -18 21 -18 26 0 16 -107 123 -123
123 -8 0 -20 -13 -27 -30 -7 -16 -16 -30 -21 -30 -5 0 -9 -6 -9 -13 0 -7 -8
-22 -17 -33 -10 -10 -24 -31 -32 -46 -8 -16 -18 -28 -23 -28 -4 0 -8 -7 -8
-15 0 -8 -9 -30 -20 -50 -11 -20 -20 -44 -20 -55 0 -11 -4 -20 -10 -20 -5 0
-10 -15 -10 -34 0 -19 -4 -38 -10 -41 -14 -9 -13 -257 1 -292 6 -15 16 -39 23
-53 11 -27 92 -149 125 -190 17 -20 21 -40 21 -102 0 -42 -4 -80 -10 -83 -5
-3 -10 -26 -10 -50 0 -24 -4 -47 -10 -50 -5 -3 -10 -19 -10 -35 0 -16 -4 -32
-10 -35 -5 -3 -10 -19 -10 -35 0 -16 -4 -32 -10 -35 -5 -3 -10 -17 -10 -30 0
-13 -4 -27 -10 -30 -5 -3 -10 -17 -10 -30 0 -13 -4 -27 -10 -30 -5 -3 -10 -15
-10 -26 0 -10 -4 -19 -10 -19 -5 0 -10 -9 -10 -20 0 -11 -4 -20 -10 -20 -5 0
-10 -9 -10 -19 0 -11 -3 -21 -7 -23 -10 -4 -42 -57 -50 -80 -3 -10 -9 -18 -14
-18 -5 0 -9 -6 -9 -13 0 -7 -8 -22 -18 -33 -10 -10 -28 -35 -42 -54 -13 -19
-27 -37 -30 -40 -3 -3 -17 -21 -30 -40 -13 -19 -50 -61 -82 -93 -32 -32 -58
-62 -58 -67 0 -6 -13 -24 -30 -42 -16 -17 -30 -37 -30 -44 0 -8 -4 -14 -9 -14
-5 0 -16 -16 -25 -35 -9 -19 -21 -37 -26 -40 -9 -5 -29 -47 -50 -100 -4 -11
-13 -33 -19 -48 -6 -15 -11 -39 -11 -52 0 -25 -14 -33 -25 -15 -11 18 -35 11
-35 -10 0 -32 -36 -25 -52 10 -7 17 -16 30 -20 30 -5 0 -8 6 -8 13 0 7 -9 23
-20 35 -11 12 -20 24 -20 28 0 3 -8 18 -19 32 -31 44 -61 102 -61 117 0 8 -3
15 -7 15 -11 0 -33 50 -33 71 0 10 -4 21 -10 24 -5 3 -10 15 -10 26 0 10 -4
19 -10 19 -5 0 -10 11 -10 24 0 14 -4 28 -10 31 -5 3 -10 19 -10 35 0 16 -4
32 -10 35 -5 3 -10 32 -10 64 0 31 -4 61 -9 66 -6 6 -12 64 -14 130 -3 66 -8
135 -12 153 -4 19 -3 43 3 55 14 32 32 145 32 210 0 31 5 59 10 62 6 3 10 21
10 40 0 19 5 37 10 40 6 3 10 21 10 40 0 19 5 37 10 40 6 3 10 15 10 26 0 10
5 28 10 39 6 11 15 29 20 40 6 11 10 31 10 44 0 14 5 28 10 31 6 3 10 17 10
30 0 13 5 27 10 30 6 3 10 15 10 26 0 10 4 27 9 37 5 9 14 29 20 45 6 15 16
39 22 55 6 15 15 35 20 44 5 10 9 25 9 33 0 8 5 15 10 15 6 0 10 6 10 13 0 12
56 134 112 242 17 33 36 70 42 82 6 13 14 23 19 23 4 0 7 7 7 15 0 9 9 25 20
37 11 12 20 28 20 35 0 7 4 13 9 13 5 0 12 8 16 19 3 10 17 31 30 47 14 16 25
34 25 41 0 6 8 18 18 25 10 7 33 33 52 58 19 25 46 56 60 70 14 14 37 41 50
60 53 75 73 87 175 97 28 3 54 9 60 14 5 5 17 9 26 9 15 0 79 31 149 71 29 17
120 107 120 119 0 5 6 15 13 22 7 7 23 36 36 63 13 28 28 58 33 67 4 10 8 31
8 47 0 17 5 33 10 36 6 3 10 50 10 105 0 55 5 120 12 145 15 54 6 65 -33 42
-17 -9 -37 -17 -45 -17 -8 0 -14 -4 -14 -10 0 -5 -11 -10 -24 -10 -14 0 -28
-4 -31 -10 -3 -5 -15 -10 -26 -10 -10 0 -19 -4 -19 -10 0 -5 -9 -10 -19 -10
-20 0 -156 -68 -194 -98 -48 -37 -143 -139 -156 -167 -7 -16 -17 -38 -22 -47
-5 -10 -9 -26 -9 -36 0 -10 -4 -22 -9 -28 -5 -5 -11 -31 -14 -59 -9 -91 -27
-145 -57 -175 -8 -8 -39 -44 -69 -80 -30 -36 -61 -72 -70 -80 -9 -8 -27 -31
-41 -50 -13 -19 -27 -37 -30 -40 -3 -3 -10 -14 -16 -25 -28 -51 -39 -70 -45
-75 -3 -3 -16 -25 -30 -50 -32 -60 -43 -70 -73 -70 -27 0 -36 25 -17 46 5 5
12 32 15 59 14 122 18 151 27 159 13 14 12 473 -1 481 -5 3 -10 38 -10 77 0
71 14 105 60 148 21 19 72 97 88 133 28 63 31 75 37 127 15 141 16 184 6 204
-5 12 -12 39 -15 61 -10 79 -18 115 -27 121 -5 3 -9 16 -9 29 0 13 -4 27 -10
30 -5 3 -10 17 -10 30 0 13 -4 27 -10 30 -5 3 -10 13 -10 21 0 8 -10 36 -21
62 -51 114 -59 132 -59 138 0 3 -13 25 -28 48 -15 22 -31 50 -36 61 -6 18 -10
16 -41 -20 -19 -22 -34 -46 -35 -52 0 -7 -4 -13 -8 -13 -5 0 -20 -21 -33 -47
-13 -27 -27 -49 -31 -51 -5 -2 -8 -10 -8 -18 0 -8 -4 -23 -10 -34 -5 -11 -14
-29 -20 -40 -5 -11 -10 -27 -10 -35 0 -8 -4 -15 -10 -15 -5 0 -10 -11 -10 -24
0 -14 -4 -28 -10 -31 -5 -3 -10 -19 -10 -35 0 -16 -4 -32 -10 -35 -5 -3 -10
-34 -10 -69 0 -34 -5 -67 -11 -73 -11 -11 -9 -41 7 -168 3 -27 10 -54 15 -59
5 -6 9 -20 9 -33 0 -13 4 -31 9 -41 5 -9 24 -48 42 -86 18 -38 41 -74 51 -80
10 -6 18 -15 18 -19 0 -5 9 -22 20 -37 20 -28 20 -40 16 -417 -2 -229 -8 -417
-15 -458 -7 -38 -14 -95 -17 -125 -3 -30 -10 -59 -15 -64 -5 -6 -9 -26 -9 -46
0 -34 -14 -60 -32 -60 -4 0 -8 18 -8 39 0 22 -4 43 -10 46 -5 3 -10 19 -10 35
0 16 -4 32 -10 35 -5 3 -10 15 -10 26 0 10 -4 27 -9 37 -5 9 -22 44 -38 77
-16 33 -42 81 -56 108 -82 145 -77 129 -77 252 0 65 -4 116 -10 120 -5 3 -10
16 -10 27 0 22 -21 89 -30 98 -3 3 -14 23 -25 44 -24 46 -169 196 -190 196 -8
0 -15 4 -15 9 0 4 -30 23 -67 42 -38 19 -69 37 -71 41 -2 5 -12 8 -23 8 -10 0
-19 5 -19 10 0 6 -7 10 -15 10 -8 0 -25 5 -38 12 -47 24 -57 28 -75 28 -10 0
-22 4 -27 8 -9 7 -44 20 -102 37 -20 5 -23 3 -23 -19 0 -14 4 -26 8 -26 4 0
13 -21 20 -47 8 -27 18 -56 23 -65 5 -10 9 -27 9 -38 0 -11 4 -28 9 -38 5 -9
15 -37 22 -62 51 -179 186 -399 289 -470 19 -14 44 -32 54 -42 11 -10 26 -18
33 -18 7 0 13 -4 13 -10 0 -5 8 -10 18 -10 10 0 22 -4 27 -8 6 -5 37 -15 70
-23 33 -7 69 -22 80 -34 26 -26 77 -101 94 -140 7 -16 17 -38 22 -47 5 -10 9
-27 9 -37 0 -11 5 -23 10 -26 6 -3 10 -19 10 -35 0 -16 5 -32 10 -35 6 -3 10
-28 10 -55 0 -27 5 -52 10 -55 6 -3 10 -31 10 -61 0 -31 5 -65 11 -76 16 -30
14 -199 -2 -237 -8 -17 -17 -31 -21 -31 -5 0 -8 -6 -8 -14 0 -8 -10 -34 -21
-58 -12 -23 -26 -54 -32 -68 -5 -14 -14 -36 -20 -50 -5 -14 -13 -34 -17 -45
-4 -11 -17 -40 -29 -63 -11 -24 -21 -54 -21 -67 0 -13 -4 -26 -9 -29 -5 -3
-11 -20 -14 -38 -3 -18 -11 -55 -17 -83 -6 -27 -13 -66 -16 -85 -3 -19 -9 -44
-14 -55 -30 -67 -29 -502 1 -521 5 -3 9 -15 9 -26 0 -23 17 -81 31 -110 5 -10
9 -29 9 -43 0 -14 5 -25 10 -25 6 0 10 -11 10 -24 0 -14 5 -28 10 -31 6 -3 10
-15 10 -26 0 -10 5 -19 10 -19 6 0 10 -7 10 -15 0 -9 9 -35 20 -57 11 -23 20
-48 20 -55 0 -7 3 -13 8 -13 8 0 32 -49 32 -67 0 -7 3 -13 8 -13 4 0 13 -15
21 -32 8 -18 22 -44 31 -58 20 -28 53 -85 84 -145 12 -22 23 -42 26 -45 3 -3
12 -18 20 -35 8 -16 27 -49 42 -72 15 -23 28 -44 28 -47 0 -3 14 -29 31 -58
58 -97 69 -118 69 -132 0 -8 3 -16 8 -18 7 -3 45 -79 63 -125 5 -13 13 -33 18
-45 4 -13 14 -36 21 -53 7 -16 17 -40 21 -52 17 -44 31 -78 40 -95 5 -10 9
-35 9 -56 0 -21 4 -42 9 -48 5 -5 12 -36 14 -69 3 -33 11 -85 17 -115 15 -72
33 -328 33 -455 0 -55 -5 -136 -12 -180 -7 -44 -14 -109 -17 -145 -3 -36 -9
-74 -14 -85 -5 -11 -11 -38 -15 -60 -3 -22 -8 -57 -11 -78 -4 -20 -10 -40 -15
-43 -5 -3 -9 -20 -9 -39 0 -19 -4 -37 -10 -40 -5 -3 -10 -19 -10 -34 0 -15 -4
-31 -8 -37 -5 -5 -15 -29 -22 -54 -8 -25 -22 -60 -32 -78 -10 -18 -18 -41 -18
-52 0 -11 -4 -20 -10 -20 -5 0 -10 -9 -10 -19 0 -11 -4 -23 -10 -26 -5 -3 -10
-19 -10 -35 0 -16 -4 -32 -10 -35 -5 -3 -10 -15 -10 -26 0 -27 -23 -99 -32
-99 -5 0 -8 -13 -8 -29 0 -17 -4 -33 -10 -36 -5 -3 -10 -17 -10 -30 0 -13 -4
-27 -10 -30 -5 -3 -10 -17 -10 -31 0 -13 -4 -24 -10 -24 -5 0 -10 -7 -10 -15
0 -17 -18 -52 -37 -73 -7 -7 -13 -17 -13 -22 0 -5 -6 -15 -12 -22 -7 -8 -19
-24 -25 -36 -7 -12 -19 -32 -25 -44 -7 -12 -21 -31 -30 -42 -10 -11 -18 -24
-18 -29 0 -5 -8 -17 -18 -26 -10 -9 -29 -32 -42 -51 -30 -43 -254 -267 -301
-300 -19 -14 -47 -37 -63 -52 -16 -16 -35 -28 -42 -28 -8 0 -14 -4 -14 -8 0
-5 -12 -15 -27 -23 -16 -8 -30 -16 -33 -19 -12 -13 -296 -150 -310 -150 -9 0
-20 -4 -25 -8 -6 -5 -30 -14 -55 -21 -25 -7 -55 -17 -68 -22 -13 -5 -36 -9
-52 -9 -16 0 -39 -4 -52 -9 -13 -5 -43 -14 -68 -21 -25 -7 -53 -16 -62 -21
-10 -5 -25 -9 -33 -9 -8 0 -24 -4 -35 -10 -11 -5 -29 -14 -40 -20 -11 -5 -29
-10 -40 -10 -11 0 -20 -4 -20 -10 0 -5 -9 -10 -20 -10 -11 0 -28 -4 -38 -9
-42 -23 -113 -51 -127 -51 -8 0 -15 -8 -15 -19 0 -14 10 -20 38 -25 46 -7 201
4 208 16 3 4 18 8 35 8 16 0 37 4 47 9 9 5 37 14 62 21 25 7 53 16 62 21 10 5
25 9 33 9 8 0 23 4 33 9 34 17 89 31 125 31 20 0 39 5 42 10 3 6 19 10 35 10
16 0 32 5 35 10 3 6 17 10 31 10 13 0 43 9 67 19 23 10 57 25 75 32 17 8 32
17 32 21 0 5 9 8 20 8 11 0 20 5 20 10 0 6 9 10 20 10 11 0 20 5 20 10 0 6 9
10 20 10 11 0 20 5 20 10 0 6 6 10 13 10 7 0 23 9 35 20 12 11 27 20 34 20 8
0 20 9 28 20 8 11 19 20 25 20 5 0 26 14 45 30 19 16 39 30 44 30 5 0 16 8 25
18 9 9 28 23 44 31 15 8 27 18 27 23 0 4 9 8 20 8 18 0 20 -7 20 -64 0 -36 5
-68 10 -71 6 -3 10 -21 10 -40 0 -19 5 -37 10 -40 6 -3 10 -14 10 -23 0 -9 14
-44 31 -77 17 -33 36 -70 43 -82 6 -13 14 -23 19 -23 4 0 7 -6 7 -13 0 -7 8
-22 18 -33 9 -10 23 -31 31 -46 8 -16 18 -28 23 -28 4 0 8 -6 8 -13 0 -32 134
-147 170 -147 6 0 10 9 10 20 0 11 -4 20 -10 20 -5 0 -10 9 -10 19 0 11 -3 21
-7 23 -8 3 -46 79 -64 126 -17 43 -34 78 -63 127 -63 107 -106 199 -106 224 0
15 -5 32 -11 38 -7 7 -9 28 -5 55 4 23 9 62 12 86 3 23 10 42 15 42 5 0 9 11
9 24 0 14 5 28 10 31 6 3 10 15 10 25 0 10 8 25 18 32 9 7 33 33 52 58 40 53
148 159 178 178 12 6 29 12 37 12 8 0 15 5 15 10 0 6 4 10 9 10 10 0 19 -49
27 -145 3 -33 10 -64 15 -69 5 -6 9 -22 9 -37 0 -15 5 -31 10 -34 6 -3 10 -17
10 -30 0 -13 5 -27 10 -30 6 -3 10 -17 10 -31 0 -13 5 -24 10 -24 6 0 10 -7
10 -15 0 -14 19 -54 30 -65 3 -3 17 -21 30 -40 31 -45 95 -108 140 -140 19
-13 44 -32 54 -42 11 -10 24 -18 28 -18 5 0 18 -9 30 -20 12 -11 28 -20 35
-20 7 0 13 -3 13 -8 0 -7 108 -64 158 -83 12 -5 34 -14 50 -20 15 -7 38 -16
52 -22 14 -5 33 -13 42 -18 10 -5 27 -9 37 -9 11 0 23 -4 26 -10 3 -5 21 -10
40 -10 19 0 37 -4 40 -10 3 -6 24 -10 46 -10 21 0 47 -4 57 -9 9 -5 37 -15 62
-22 25 -7 54 -20 65 -29 24 -20 110 -60 129 -60 7 0 19 7 26 15 10 12 9 22 -4
49 -21 44 -70 96 -90 96 -9 0 -16 4 -16 8 0 4 -21 13 -47 20 -27 8 -56 18 -65
23 -10 5 -27 9 -37 9 -11 0 -23 5 -26 10 -3 6 -19 10 -35 10 -16 0 -32 4 -35
10 -3 5 -21 10 -40 10 -19 0 -37 5 -40 10 -3 6 -17 10 -31 10 -13 0 -24 5 -24
10 0 6 -9 10 -19 10 -24 0 -197 90 -229 120 -9 8 -33 27 -52 40 -36 26 -121
113 -148 152 -9 13 -24 29 -34 36 -10 7 -18 19 -18 25 0 7 -14 28 -30 47 -16
19 -30 41 -30 48 0 6 -4 12 -10 12 -5 0 -10 9 -10 20 0 11 -3 20 -7 20 -11 0
-33 50 -33 71 0 10 -4 21 -10 24 -5 3 -10 17 -10 30 0 13 -4 27 -10 30 -5 3
-10 26 -10 51 0 43 11 73 38 102 14 16 22 10 62 -48 32 -45 135 -148 180 -180
19 -13 37 -27 40 -30 8 -9 63 -40 103 -58 20 -9 37 -20 37 -24 0 -5 6 -8 14
-8 12 0 44 -14 118 -51 10 -5 27 -9 37 -9 11 0 23 -5 26 -10 3 -6 19 -10 35
-10 16 0 32 -5 35 -10 3 -6 17 -10 30 -10 13 0 27 -4 30 -10 3 -5 19 -10 35
-10 16 0 32 -4 35 -10 3 -6 19 -10 35 -10 16 0 32 -5 35 -10 3 -6 19 -10 35
-10 16 0 32 -4 35 -10 3 -5 21 -10 40 -10 19 0 37 -4 40 -10 3 -5 19 -10 35
-10 16 0 31 -4 34 -9 3 -5 20 -11 38 -14 18 -3 53 -11 78 -17 25 -6 64 -15 88
-21 23 -5 63 -14 90 -20 26 -6 67 -13 92 -15 25 -3 54 -9 65 -14 11 -5 47 -12
80 -15 33 -3 103 -10 155 -16 130 -15 2110 -23 2124 -9 5 5 20 10 32 10 13 0
26 5 29 10 3 6 13 10 22 10 27 0 60 50 68 104 10 65 10 5476 0 5534 -4 23 -10
42 -14 42 -3 0 -17 17 -30 38 -12 20 -44 53 -69 72 -25 19 -79 68 -120 108
-42 39 -79 72 -83 72 -4 0 -22 14 -40 31 -19 18 -50 44 -69 58 -19 14 -45 36
-57 48 -12 12 -39 34 -60 50 -20 15 -62 52 -92 81 -30 28 -58 52 -62 52 -4 0
-31 22 -59 50 -28 27 -68 62 -88 77 -20 16 -53 44 -72 64 -19 19 -57 52 -85
73 -27 21 -63 53 -80 70 -16 18 -46 43 -65 56 -19 13 -49 38 -66 55 -17 17
-48 44 -70 61 -21 16 -53 43 -71 60 -17 18 -49 45 -69 60 -21 16 -54 44 -73
62 -19 17 -38 32 -42 32 -4 0 -26 18 -50 41 -23 22 -58 52 -78 67 -20 15 -46
37 -58 49 -12 12 -39 34 -60 50 -21 15 -56 47 -79 69 -23 23 -59 54 -80 70
-22 16 -50 40 -64 54 -14 14 -41 37 -60 50 -19 13 -46 36 -60 50 -14 14 -41
37 -60 50 -19 13 -51 40 -70 60 -19 20 -51 47 -70 60 -19 14 -49 39 -67 56
-17 18 -49 45 -70 60 -21 16 -49 40 -63 54 -14 14 -41 37 -60 50 -19 14 -45
34 -57 47 -13 12 -40 34 -60 50 -21 15 -49 39 -63 53 -14 14 -41 37 -60 50
-19 13 -46 36 -60 50 -14 14 -41 36 -60 49 -19 13 -46 36 -60 50 -14 15 -41
38 -60 51 -19 13 -42 31 -50 40 -8 8 -35 31 -60 50 -25 19 -52 42 -60 51 -8 8
-36 32 -62 51 -25 20 -72 61 -104 92 -32 31 -62 56 -67 56 -6 0 -26 17 -46 38
-20 20 -52 48 -71 62 -19 13 -46 36 -60 50 -14 14 -51 46 -82 69 -32 24 -58
46 -58 50 0 4 -14 15 -31 25 -16 10 -45 32 -62 50 -18 17 -48 42 -67 56 -19
13 -46 36 -60 50 -14 14 -41 37 -60 50 -19 13 -46 35 -60 47 -14 13 -28 23
-32 23 -4 0 -27 19 -50 43 -93 92 -138 106 -212 63z"/>
<path d="M6809 6002 c0 -4 0 -39 1 -77 1 -61 -8 -129 -26 -187 -12 -40 15 -14
40 37 46 93 95 114 279 122 l127 6 0 -514 c0 -480 -2 -517 -19 -555 -14 -31
-30 -47 -65 -63 -25 -13 -44 -26 -41 -31 2 -4 31 -1 62 6 74 17 192 17 266 0
71 -17 83 -4 24 25 -85 42 -82 14 -85 608 l-3 524 128 -6 c70 -3 145 -11 165
-17 53 -15 93 -53 119 -110 12 -28 26 -50 31 -50 11 0 10 9 -8 87 -8 37 -15
95 -14 128 1 33 2 63 1 67 0 4 -20 0 -43 -10 -38 -15 -91 -17 -443 -17 -344 0
-407 3 -447 17 -27 9 -48 13 -49 10z"/>
<path d="M7890 6004 c0 -5 17 -18 37 -29 20 -11 46 -33 57 -48 21 -28 21 -37
21 -552 0 -515 0 -524 -21 -552 -11 -15 -37 -37 -57 -48 -48 -26 -47 -40 1
-29 47 11 257 12 300 1 44 -12 40 3 -9 31 -65 38 -69 56 -69 332 l0 240 325 0
325 0 0 -240 c0 -276 -4 -294 -69 -332 -49 -28 -53 -43 -8 -31 42 11 252 10
300 -1 50 -11 47 4 -7 32 -28 15 -49 35 -58 55 -10 25 -13 139 -13 537 0 568
-2 552 71 595 24 14 44 27 44 28 0 2 -69 3 -152 2 -84 0 -168 4 -185 8 -47 12
-42 -7 10 -35 61 -34 66 -55 66 -315 l1 -223 -325 0 -325 0 0 223 c0 252 6
276 72 312 21 11 38 22 38 25 0 3 -66 6 -147 5 -82 0 -165 4 -185 9 -21 4 -38
4 -38 0z"/>
<path d="M9930 5994 c-36 -12 -108 -14 -375 -11 -181 2 -342 7 -357 12 -40 11
-34 -6 9 -30 76 -42 78 -48 81 -311 l4 -234 -27 -10 c-14 -5 -40 -10 -56 -10
-47 0 -37 -28 14 -35 24 -4 49 -10 56 -14 10 -6 12 -65 9 -252 -3 -277 -7
-293 -79 -329 -56 -29 -41 -40 33 -23 95 22 704 14 766 -10 50 -19 46 -23 62
83 6 41 19 108 29 148 18 67 18 72 2 72 -10 0 -22 -14 -30 -37 -8 -20 -35 -58
-61 -84 -72 -72 -111 -81 -373 -86 l-217 -5 2 258 3 259 104 3 c128 3 237 -11
270 -35 13 -11 30 -35 36 -54 7 -18 16 -33 21 -32 8 3 23 221 16 228 -2 2 -18
-5 -35 -16 -29 -17 -52 -19 -224 -19 l-193 0 0 241 0 241 208 -4 c172 -3 212
-6 239 -20 43 -24 72 -64 79 -110 4 -22 12 -38 20 -38 11 0 14 22 14 103 0 56
3 119 6 140 7 41 8 41 -56 21z"/>
<path d="M11729 6002 c0 -4 0 -39 1 -77 1 -61 -8 -129 -26 -187 -12 -40 15
-14 40 37 46 93 95 114 279 122 l127 6 0 -514 c0 -480 -2 -517 -19 -555 -14
-31 -30 -47 -65 -63 -25 -13 -44 -26 -41 -31 2 -4 31 -1 62 6 74 17 192 17
266 0 71 -17 83 -4 24 25 -85 42 -82 14 -85 608 l-3 524 128 -6 c70 -3 145
-11 165 -17 53 -15 93 -53 119 -110 12 -28 26 -50 31 -50 11 0 10 9 -8 87 -8
37 -15 95 -14 128 1 33 2 63 1 67 0 4 -20 0 -43 -10 -38 -15 -91 -17 -443 -17
-344 0 -407 3 -447 17 -27 9 -48 13 -49 10z"/>
<path d="M14770 5994 c-36 -12 -108 -14 -375 -11 -181 2 -342 7 -357 12 -40
11 -34 -6 9 -30 76 -42 78 -48 81 -311 l4 -234 -27 -10 c-14 -5 -40 -10 -56
-10 -47 0 -37 -28 14 -35 24 -4 49 -10 56 -14 10 -6 12 -65 9 -252 -3 -277 -7
-293 -79 -329 -56 -29 -41 -40 33 -23 95 22 704 14 766 -10 50 -19 46 -23 62
83 6 41 19 108 29 148 18 67 18 72 2 72 -10 0 -22 -14 -30 -37 -8 -20 -35 -58
-61 -84 -72 -72 -111 -81 -373 -86 l-217 -5 2 258 3 259 104 3 c128 3 237 -11
270 -35 13 -11 30 -35 36 -54 7 -18 16 -33 21 -32 8 3 23 221 16 228 -2 2 -18
-5 -35 -16 -29 -17 -52 -19 -224 -19 l-193 0 0 241 0 241 208 -4 c172 -3 212
-6 239 -20 43 -24 72 -64 79 -110 4 -22 12 -38 20 -38 11 0 14 22 14 103 0 56
3 119 6 140 7 41 8 41 -56 21z"/>
<path d="M15810 5994 c-36 -12 -108 -14 -375 -11 -181 2 -342 7 -357 12 -40
11 -34 -6 9 -30 76 -42 78 -48 81 -311 l4 -234 -27 -10 c-14 -5 -40 -10 -56
-10 -47 0 -37 -28 14 -35 24 -4 49 -10 56 -14 10 -6 12 -65 9 -252 -3 -277 -7
-293 -79 -329 -56 -29 -41 -40 33 -23 95 22 704 14 766 -10 50 -19 46 -23 62
83 6 41 19 108 29 148 18 67 18 72 2 72 -10 0 -22 -14 -30 -37 -8 -20 -35 -58
-61 -84 -72 -72 -111 -81 -373 -86 l-217 -5 2 258 3 259 104 3 c128 3 237 -11
270 -35 13 -11 30 -35 36 -54 7 -18 16 -33 21 -32 8 3 23 221 16 228 -2 2 -18
-5 -35 -16 -29 -17 -52 -19 -224 -19 l-193 0 0 241 0 241 208 -4 c172 -3 212
-6 239 -20 43 -24 72 -64 79 -110 4 -22 12 -38 20 -38 11 0 14 22 14 103 0 56
3 119 6 140 7 41 8 41 -56 21z"/>
<path d="M4100 5992 c0 -5 19 -17 41 -28 48 -21 69 -60 69 -126 0 -88 -80
-905 -93 -956 -16 -60 -37 -86 -90 -113 -53 -28 -38 -39 30 -23 74 17 192 17
266 0 31 -7 57 -10 57 -5 0 4 -19 18 -42 31 -63 35 -71 66 -58 242 29 417 45
606 50 606 3 0 88 -167 190 -371 102 -204 190 -375 197 -381 9 -7 61 88 206
379 l195 388 6 -55 c14 -126 46 -584 46 -663 0 -96 -16 -128 -77 -154 -52 -21
-30 -32 34 -17 74 17 192 17 266 0 61 -14 75 -6 30 18 -40 21 -79 66 -91 106
-13 41 -32 211 -67 608 -38 426 -36 450 42 487 53 25 55 40 6 29 -48 -11 -258
-12 -300 -1 -45 12 -41 -3 7 -31 44 -25 66 -60 76 -119 6 -37 -8 -70 -182
-427 l-189 -387 -191 388 -191 388 12 53 c14 58 41 94 86 112 40 17 38 35 -3
24 -42 -11 -251 -12 -300 -1 -22 4 -38 4 -38 -1z"/>
<path d="M6070 5991 c-278 -96 -465 -287 -516 -531 -21 -99 -14 -262 15 -343
69 -197 209 -328 393 -372 91 -21 136 -19 232 14 290 97 475 327 492 615 17
274 -129 501 -382 592 -71 26 -193 39 -234 25z m65 -116 c197 -41 352 -189
411 -391 20 -70 22 -227 4 -306 -40 -171 -142 -277 -323 -334 -51 -16 -66 -16
-130 -6 -188 32 -336 163 -404 359 -22 66 -27 95 -27 188 -1 123 13 192 55
276 50 100 114 157 227 205 67 27 93 29 187 9z"/>
<path d="M10180 5993 c0 -4 17 -17 37 -28 20 -11 46 -33 57 -48 21 -28 21 -37
21 -545 0 -580 3 -559 -73 -600 -23 -13 -40 -27 -37 -32 2 -4 31 -1 62 6 74
17 172 17 246 0 65 -15 69 -8 17 26 -67 44 -70 61 -70 356 l0 263 58 -6 c222
-26 384 -133 467 -307 37 -78 66 -199 58 -243 -5 -24 -35 -55 -79 -81 -32 -20
-12 -23 46 -8 68 18 188 18 263 0 31 -7 60 -10 62 -6 3 5 -15 20 -39 34 -64
37 -81 64 -121 189 -20 61 -50 136 -66 168 -39 72 -117 161 -181 204 l-50 33
65 32 c80 39 149 106 185 179 36 74 38 185 5 247 -64 120 -240 186 -448 168
-128 -11 -388 -11 -442 -1 -24 5 -43 5 -43 0z m553 -89 c135 -30 245 -105 277
-188 14 -38 13 -111 -4 -149 -20 -49 -73 -97 -144 -130 l-64 -30 -106 26 c-59
14 -140 29 -179 32 l-73 7 0 204 0 203 38 6 c20 4 55 13 77 20 54 18 93 18
178 -1z"/>
<path d="M12820 5993 c0 -4 17 -17 37 -28 20 -11 46 -33 57 -48 21 -28 21 -37
21 -545 0 -580 3 -559 -73 -600 -23 -13 -40 -27 -37 -32 2 -4 31 -1 62 6 74
17 172 17 246 0 65 -15 69 -8 17 26 -67 44 -70 61 -70 356 l0 263 58 -6 c222
-26 384 -133 467 -307 37 -78 66 -199 58 -243 -5 -24 -35 -55 -79 -81 -32 -20
-12 -23 46 -8 68 18 188 18 263 0 31 -7 60 -10 62 -6 3 5 -15 20 -39 34 -64
37 -81 64 -121 189 -20 61 -50 136 -66 168 -39 72 -117 161 -181 204 l-50 33
65 32 c80 39 149 106 185 179 36 74 38 185 5 247 -64 120 -240 186 -448 168
-128 -11 -388 -11 -442 -1 -24 5 -43 5 -43 0z m553 -89 c135 -30 245 -105 277
-188 14 -38 13 -111 -4 -149 -20 -49 -73 -97 -144 -130 l-64 -30 -106 26 c-59
14 -140 29 -179 32 l-73 7 0 204 0 203 38 6 c20 4 55 13 77 20 54 18 93 18
178 -1z"/>
</g>
</svg>
